# xmcd
#
# Track frame offsets:
#	150
#	14613
#	29269
#	47313
#	62681
#	77856
#	96622
#	112084
#	133290
#	150191
#	165281
#	181075
#	196006
#	211884
#	229525
#	246635
#	259259
#	274735
#	291001
#	308138
#
# Disc length: 4309 seconds
#
# Revision: 1
# Processed by: cddbd v1.5.2PL0 Copyright (c) Steve Scherf et al.
# Submitted via: audiograbber 1.83.01
#
DISCID=1210d314
DTITLE=VA - - Schmuse Schlager CD - 2
DYEAR=2014
DGENRE=Schlager
TTITLE0=Nicole - Alles nur für dich
TTITLE1=Chris Norman - Midnight Lady
TTITLE2=Monika Martin - La Luna Blu
TTITLE3=Fantasy - Sag ich will
TTITLE4=Duo Goldstars - Es war die Nacht
TTITLE5=Achim Petry - Wie ein offenes Buch
TTITLE6=Ireen Sheer - Ich hab den Himmel geseh'n
TTITLE7=Christian Anders - Es fährt ein Zug nach Nirgendwo
TTITLE8=Jürgen Marcus - Eine neue Liebe ist wie ein neues Leben
TTITLE9=Nino de Angelo - Das Leben ist Schön
TTITLE10=Vanessa Neigert - Nel blu dipinto di blu (Volare)
TTITLE11=David Hasselhoff - Is Everybody Happy - Radio Edit
TTITLE12=Vicky Leandros - Du bist mein schönster Gedanke
TTITLE13=Claudia Jung and Richard Clayderman - Je t'aime mon amour
TTITLE14=Hansi Hinterseer - Amore Mio
TTITLE15=Mary Roos - Mit dir für immer oder nie
TTITLE16=Die Flippers - Die rote Sonne von Barbados
TTITLE17=Andrea Berg - Tief im Sturm
TTITLE18=Annemarie Eilfeld - Es geht vorbei (Try)
TTITLE19=Matthias Reim - Ich hab geträumt von Dir
EXTD=
EXTT0=
EXTT1=
EXTT2=
EXTT3=
EXTT4=
EXTT5=
EXTT6=
EXTT7=
EXTT8=
EXTT9=
EXTT10=
EXTT11=
EXTT12=
EXTT13=
EXTT14=
EXTT15=
EXTT16=
EXTT17=
EXTT18=
EXTT19=
PLAYORDER=
